<svg viewBox="0 0 12 12" fill="none" xmlns="http://www.w3.org/2000/svg">
<path d="M9.47107 2.75583C8.81406 2.45503 8.12047 2.24164 7.408 2.12109C7.3105 2.29538 7.22229 2.4747 7.14372 2.6583C6.38481 2.54394 5.61304 2.54394 4.85413 2.6583C4.77552 2.47472 4.6873 2.2954 4.58985 2.12109C3.87693 2.24265 3.18287 2.45656 2.5252 2.7574C1.21956 4.68913 0.865617 6.57288 1.04259 8.42988C1.80721 8.99482 2.66303 9.42446 3.57286 9.70013C3.77773 9.42459 3.95901 9.13228 4.11478 8.82629C3.81892 8.71579 3.53335 8.57946 3.2614 8.41887C3.33297 8.36696 3.40297 8.31348 3.47061 8.26156C4.26194 8.63371 5.12564 8.82666 6.0001 8.82666C6.87457 8.82666 7.73827 8.63371 8.52959 8.26156C8.59802 8.31741 8.66802 8.37089 8.73881 8.41887C8.46633 8.57972 8.18024 8.71631 7.88385 8.82708C8.03943 9.13293 8.22072 9.42499 8.42577 9.70013C9.33638 9.42557 10.1929 8.99613 10.9576 8.43067C11.1653 6.27714 10.6029 4.41069 9.47107 2.75583ZM4.33895 7.28784C3.84579 7.28784 3.43837 6.8403 3.43837 6.28972C3.43837 5.73915 3.83163 5.28768 4.33737 5.28768C4.84311 5.28768 5.24739 5.73915 5.23874 6.28972C5.23009 6.8403 4.84154 7.28784 4.33895 7.28784ZM7.66126 7.28784C7.16732 7.28784 6.76147 6.8403 6.76147 6.28972C6.76147 5.73915 7.15473 5.28768 7.66126 5.28768C8.16779 5.28768 8.56892 5.73915 8.56027 6.28972C8.55162 6.8403 8.16386 7.28784 7.66126 7.28784Z" fill="currentColor"/>
</svg>
