<svg viewBox="0 0 12 12" fill="none" xmlns="http://www.w3.org/2000/svg">
<path d="M7.64303 2C6.59111 2 5.73835 2.89543 5.73835 4C5.73835 4.16691 5.75783 4.32905 5.79451 4.48404C4.78305 4.48404 3.25957 4.27954 1.98722 3.0048C1.81803 2.83529 1.50604 2.94863 1.51778 3.18784C1.70634 7.03133 3.35238 8.15246 4.20005 8.22222C3.65268 8.76284 2.85755 9.18956 2.05744 9.38109C1.84628 9.43164 1.79412 9.66281 2.0006 9.72996C2.57311 9.91617 3.39258 9.9879 3.83367 10C6.95409 10 9.49031 7.37357 9.54675 4.11115C9.95644 3.84472 10.2189 3.26625 10.3663 2.85645C10.4022 2.75665 10.2386 2.64036 10.1407 2.68113C9.83469 2.80854 9.44615 2.83874 9.1152 2.7309C8.76588 2.28463 8.23611 2 7.64303 2Z" fill="currentColor"/>
</svg>
